<?xml version="1.0" encoding="iso-8859-1"?>
<!-- Generator: Adobe Illustrator 18.1.1, SVG Export Plug-In . SVG Version: 6.00 Build 0)  -->
<svg version="1.1" id="Capa_1" xmlns="http://www.w3.org/2000/svg" xmlns:xlink="http://www.w3.org/1999/xlink" x="0px" y="0px"
	 viewBox="0 0 189.679 189.679" style="enable-background:new 0 0 189.679 189.679;" xml:space="preserve">
<g>
	<g>
		<path style="fill:#010002;" d="M149.408,0v5.719H40.26V0H18.172v93.225H40.26V82.868h42.187v106.811h22.862V82.868h44.099v10.357
			h22.099V0H149.408z M37.404,90.37h-16.38V2.856h16.38v2.86v77.153V90.37z M102.446,186.823H85.304V82.868h17.143V186.823z
			 M105.309,80.012H82.448H40.26V8.575h109.148v71.437H105.309z M168.648,90.37h-16.377v-7.501V5.719V2.856h16.377V90.37z"/>
		<path style="fill:#010002;" d="M113.405,18.496l-12.83,0.122c-0.462,0-0.895,0.2-1.199,0.54l-24.34,27.21
			c-0.44,0.487-0.54,1.192-0.258,1.789c0.268,0.555,0.82,0.916,1.535,0.916c0.011,0,0.011,0,0.011,0l16.717-0.923l-17.2,19.226
			c-0.573,0.641-0.544,1.625,0.064,2.233c0.308,0.308,0.716,0.483,1.145,0.483c0.404,0,0.791-0.15,1.084-0.415l29.042-25.975
			c0.497-0.447,0.673-1.131,0.455-1.757c-0.222-0.63-0.791-1.052-1.446-1.084l-11.928-0.666l20.274-18.878
			c0.494-0.462,0.655-1.163,0.397-1.793C114.693,18.911,114.085,18.496,113.405,18.496z M76.206,48.365l-0.011-0.025h0.011V48.365z"
			/>
	</g>
</g>
<g>
</g>
<g>
</g>
<g>
</g>
<g>
</g>
<g>
</g>
<g>
</g>
<g>
</g>
<g>
</g>
<g>
</g>
<g>
</g>
<g>
</g>
<g>
</g>
<g>
</g>
<g>
</g>
<g>
</g>
</svg>
